<svg width="66" height="17" viewBox="0 0 66 17" fill="none" xmlns="http://www.w3.org/2000/svg">
<path d="M17.5156 7.22656C17.5156 7.92188 17.4297 8.54297 17.2578 9.08984C17.0859 9.63672 16.8516 10.1211 16.5547 10.543C16.2656 10.957 15.9297 11.3125 15.5469 11.6094C15.1641 11.9062 14.7617 12.1484 14.3398 12.3359C13.9258 12.5234 13.5039 12.6602 13.0742 12.7461C12.6523 12.832 12.2539 12.875 11.8789 12.875H4.98828V9.82812H11.8789C12.2695 9.79688 12.6211 9.71875 12.9336 9.59375C13.2539 9.46094 13.5273 9.28516 13.7539 9.06641C13.9805 8.84766 14.1562 8.58594 14.2812 8.28125C14.4062 7.96875 14.4688 7.61719 14.4688 7.22656V5.84375C14.4297 5.46094 14.3477 5.10938 14.2227 4.78906C14.0977 4.46875 13.9258 4.19531 13.707 3.96875C13.4961 3.74219 13.2383 3.56641 12.9336 3.44141C12.6289 3.30859 12.2773 3.24219 11.8789 3.24219H5.01172C4.60547 3.24219 4.29688 3.34766 4.08594 3.55859C3.875 3.76953 3.76953 4.07422 3.76953 4.47266V17H0.722656V4.47266C0.722656 3.69141 0.863281 3.02734 1.14453 2.48047C1.43359 1.93359 1.78906 1.49219 2.21094 1.15625C2.64062 0.820312 3.10547 0.578125 3.60547 0.429688C4.10547 0.273438 4.56641 0.195312 4.98828 0.195312H11.8789C12.5664 0.195312 13.1836 0.285156 13.7305 0.464844C14.2773 0.636719 14.7578 0.871094 15.1719 1.16797C15.5938 1.45703 15.9492 1.79297 16.2383 2.17578C16.5352 2.55859 16.7773 2.96094 16.9648 3.38281C17.1602 3.79688 17.3008 4.21875 17.3867 4.64844C17.4727 5.07031 17.5156 5.46875 17.5156 5.84375V7.22656ZM33.5703 12.7227C33.5703 13.2461 33.5039 13.7188 33.3711 14.1406C33.2383 14.5547 33.0625 14.9219 32.8438 15.2422C32.625 15.5547 32.3711 15.8242 32.082 16.0508C31.793 16.2695 31.4883 16.4492 31.168 16.5898C30.8555 16.7305 30.5352 16.8359 30.207 16.9062C29.8867 16.9688 29.582 17 29.293 17H23.7969C23.375 17 22.9141 16.9258 22.4141 16.7773C21.9141 16.6289 21.4492 16.3867 21.0195 16.0508C20.5977 15.707 20.2422 15.2656 19.9531 14.7266C19.6719 14.1797 19.5312 13.5117 19.5312 12.7227V8.59766C19.5312 7.81641 19.6719 7.15625 19.9531 6.61719C20.2422 6.07031 20.5977 5.62891 21.0195 5.29297C21.4492 4.94922 21.9141 4.70312 22.4141 4.55469C22.9141 4.40625 23.375 4.33203 23.7969 4.33203H29.293C30.0742 4.33203 30.7383 4.47266 31.2852 4.75391C31.832 5.03516 32.2734 5.39062 32.6094 5.82031C32.9453 6.24219 33.1875 6.70312 33.3359 7.20312C33.4922 7.70312 33.5703 8.16797 33.5703 8.59766V12.7227ZM30.5234 8.62109C30.5234 8.19922 30.418 7.88672 30.207 7.68359C29.9961 7.48047 29.6914 7.37891 29.293 7.37891H23.8203C23.4141 7.37891 23.1055 7.48438 22.8945 7.69531C22.6836 7.89844 22.5781 8.19922 22.5781 8.59766V12.7227C22.5781 13.1211 22.6836 13.4258 22.8945 13.6367C23.1055 13.8477 23.4141 13.9531 23.8203 13.9531H29.293C29.707 13.9531 30.0156 13.8477 30.2188 13.6367C30.4219 13.4258 30.5234 13.1211 30.5234 12.7227V8.62109ZM48.418 12.7227C48.418 13.2461 48.3516 13.7188 48.2188 14.1406C48.0859 14.5547 47.9102 14.9219 47.6914 15.2422C47.4727 15.5547 47.2188 15.8242 46.9297 16.0508C46.6406 16.2695 46.3359 16.4492 46.0156 16.5898C45.7031 16.7305 45.3828 16.8359 45.0547 16.9062C44.7344 16.9688 44.4297 17 44.1406 17H35.8906V13.9531H44.1172C44.5312 13.9531 44.8438 13.8477 45.0547 13.6367C45.2656 13.4258 45.3711 13.1211 45.3711 12.7227C45.332 11.9102 44.9219 11.5039 44.1406 11.5039H39.418C38.7461 11.5039 38.1758 11.3867 37.707 11.1523C37.2383 10.918 36.8555 10.625 36.5586 10.2734C36.2695 9.92188 36.0586 9.54297 35.9258 9.13672C35.8008 8.73047 35.7383 8.35156 35.7383 8C35.7383 7.32031 35.8594 6.75 36.1016 6.28906C36.3438 5.82031 36.6484 5.44141 37.0156 5.15234C37.3828 4.86328 37.7812 4.65625 38.2109 4.53125C38.6406 4.39844 39.043 4.33203 39.418 4.33203H46.9062V7.37891H39.4414C39.2852 7.37891 39.1602 7.39844 39.0664 7.4375C38.9805 7.46875 38.9141 7.51562 38.8672 7.57812C38.8281 7.63281 38.8047 7.69531 38.7969 7.76562C38.7891 7.82812 38.7852 7.89062 38.7852 7.95312C38.793 8.07812 38.8164 8.17578 38.8555 8.24609C38.8945 8.31641 38.9414 8.36719 38.9961 8.39844C39.0586 8.42969 39.125 8.44922 39.1953 8.45703C39.2734 8.45703 39.3477 8.45703 39.418 8.45703H44.1406C44.9219 8.45703 45.5859 8.59766 46.1328 8.87891C46.6797 9.16016 47.1211 9.51562 47.457 9.94531C47.793 10.3672 48.0352 10.8281 48.1836 11.3281C48.3398 11.8281 48.418 12.293 48.418 12.7227ZM61.8711 7.37891H56.5508V17H53.4688V7.37891H49.5078V4.33203H53.4688V0.195312H56.5508V4.33203H61.8711V7.37891ZM65.7383 15.4648C65.7383 15.6758 65.6953 15.875 65.6094 16.0625C65.5312 16.2422 65.4219 16.4023 65.2812 16.543C65.1484 16.6758 64.9883 16.7812 64.8008 16.8594C64.6211 16.9375 64.4297 16.9766 64.2266 16.9766C64.0156 16.9766 63.8164 16.9375 63.6289 16.8594C63.4492 16.7812 63.2891 16.6758 63.1484 16.543C63.0156 16.4023 62.9102 16.2422 62.832 16.0625C62.7539 15.875 62.7148 15.6758 62.7148 15.4648C62.7148 15.2617 62.7539 15.0703 62.832 14.8906C62.9102 14.7031 63.0156 14.543 63.1484 14.4102C63.2891 14.2695 63.4492 14.1602 63.6289 14.082C63.8164 13.9961 64.0156 13.9531 64.2266 13.9531C64.4297 13.9531 64.6211 13.9961 64.8008 14.082C64.9883 14.1602 65.1484 14.2695 65.2812 14.4102C65.4219 14.543 65.5312 14.7031 65.6094 14.8906C65.6953 15.0703 65.7383 15.2617 65.7383 15.4648Z" fill="#DB2EF2"/>
</svg>
